# xmcd
#
# Track frame offsets: 
#        150
#        19730
#        42520
#
# Disc length: 969 seconds
#
# Revision: 0
# Processed by: cddbd v1.5.2PL0 Copyright (c) Steve Scherf et al.
# Submitted via: ExactAudioCopyFreeDBPlugin 1.0
#
DISCID=1e03c703
DTITLE=Luther Vandross - Power Of Love - Love Power (Remix)
DYEAR=1991
DGENRE=Soul
TTITLE0=Power Of Love - Love Power (Powerful Mix)
TTITLE1=Power Of Love - Love Power (Radio Edit)
TTITLE2=Power Of Love - Love Power (Love Dub)
EXTD=
EXTT0=
EXTT1=
EXTT2=
PLAYORDER=
